<svg width="312" height="170" viewBox="0 0 312 170" fill="none" xmlns="http://www.w3.org/2000/svg">
<rect width="312" height="170" rx="15" fill="#C16A56"/>
<g clip-path="url(#clip0_88_17)">
<path d="M84.6751 41.6766C84.6751 42.3805 85.0826 43.3748 84.8497 44.0205C84.5587 44.8406 83.2714 44.7244 82.5728 44.7244C79.1833 44.7825 75.7937 44.8406 72.3395 44.8406C71.2269 44.8987 70.1208 44.8406 69.0082 44.8987C66.9641 45.0149 65.6769 46.8294 66.3172 48.8246C66.8412 50.3485 67.7209 51.6916 68.8917 52.8668C70.7029 54.7974 72.4559 56.7345 74.1507 58.7233C76.1948 61.2997 77.6567 64.1085 78.5364 67.2725C78.7693 68.2088 78.8857 69.1451 78.8857 70.0813C78.8857 70.9014 78.7693 71.7214 78.5364 72.4834C78.42 72.8902 78.2453 73.2453 78.0707 73.594C77.896 73.9427 77.7796 74.3559 77.6049 74.6465C77.2556 75.2341 77.081 75.996 76.2595 75.996C75.6191 75.996 64.3896 76.1122 63.8074 76.0541C63.6328 76.0541 63.2835 76.1122 63.167 75.996C62.7595 75.6473 63.2835 74.7046 63.4581 74.2978C64.5125 72.012 64.8618 69.61 64.92 67.1498C65.0947 63.282 64.92 59.5369 63.9821 55.7854C63.7492 54.7328 63.6328 53.6158 63.3417 52.5633C62.876 50.5164 62.9924 48.5211 63.5163 46.5324C63.691 46.061 63.7492 45.538 63.8657 44.9504C61.7051 44.8341 59.7128 44.8341 57.6687 45.1247C56.3815 45.2991 55.1525 45.4153 53.8717 45.5315C53.3477 45.5896 52.8173 45.4153 52.5844 44.8277C52.0605 43.3619 51.6465 41.8381 51.3554 40.2625C51.239 39.3262 51.0061 38.39 51.0061 37.3956C51.0579 36.1106 51.7565 35.8201 53.0437 35.7619C56.6144 35.5295 81.9259 34.8838 82.9803 35.0581C83.9183 35.2325 84.0347 36.1687 84.2094 36.9888C84.4422 37.9251 84.5004 38.8032 84.5587 39.7395C84.6169 40.3852 84.6169 41.0309 84.6751 41.6702V41.6766Z" fill="white"/>
<path d="M125.233 74.4786C125.233 75.0662 125.291 75.7119 125.117 76.3512C124.942 76.9388 124.535 76.6999 124.062 76.5836L122.833 76.2349C119.91 75.0081 116.811 74.4205 113.654 74.3624C109.618 74.188 105.646 74.653 101.668 75.1824C98.104 75.6538 94.5334 76.0606 91.0274 76.4157C89.973 76.532 90.0312 75.5376 90.4452 74.8919C92.7868 71.2049 93.1944 67.1046 92.6639 62.8236C92.1982 59.369 91.6096 55.9726 90.9692 52.5181C90.5034 49.9998 90.2123 47.4816 90.1477 44.9052C90.0894 42.5031 90.8527 40.3981 91.8424 38.2867C92.6639 36.7047 93.9447 35.8265 95.6459 35.536C96.7003 35.3035 97.8065 35.2454 98.9191 35.1873C102.6 35.1292 106.229 35.4197 109.851 36.2398C111.429 36.5885 113.008 36.8855 114.644 37.0017C116.106 37.1179 117.684 37.1179 119.146 36.8274C119.903 36.7111 120.608 36.4787 121.249 36.1235C121.598 35.9492 121.947 35.7168 122.303 35.4778C122.478 35.3616 122.827 34.8321 123.125 35.071C123.241 35.1292 123.357 35.7749 123.416 35.9492C123.707 36.7111 123.881 37.5312 124.114 38.3512C124.405 39.7589 124.755 41.102 124.936 42.5096C125.052 43.3297 125.518 45.3765 124.761 45.9641C124.586 46.1385 124.412 46.2547 124.179 46.3709C123.771 46.6034 123.357 46.8423 122.95 46.9585C122.07 47.3072 121.139 47.4299 120.201 47.4299C116.397 47.5461 112.717 46.7261 109.385 44.8535C107.516 43.8591 105.821 42.5677 104.068 41.399C102.199 40.1721 100.387 38.8807 98.5115 37.712C96.2928 36.4206 94.2423 37.3633 93.7183 39.8816C93.5437 40.7016 93.5437 41.6379 93.7765 42.3998C94.184 43.8075 94.6563 45.2087 95.4131 46.3839C97.1661 49.0183 99.1519 51.4785 100.614 54.2292C100.788 54.5779 100.905 54.8749 101.08 55.1655C101.312 55.6369 101.312 55.9855 101.901 55.8693C102.25 55.8112 102.6 55.695 102.955 55.5787L105.763 54.5262C106.526 54.2357 107.283 53.9386 108.046 53.59C109.159 53.1832 110.265 52.7118 111.319 52.2985C111.843 52.1242 114.127 51.0071 114.418 51.5947C114.651 52.1823 114.127 55.1655 114.068 55.9855C113.894 57.277 113.719 58.5038 113.486 59.7371C113.37 60.2085 113.37 60.9639 112.788 60.6153C112.438 60.4409 112.206 60.0277 111.85 59.7371C111.326 59.3303 110.795 58.9752 110.213 58.6846C109.101 58.097 107.813 57.7483 106.533 57.6321C105.769 57.6321 105.012 57.5159 104.249 57.6321C103.842 57.6321 102.554 57.8064 102.496 58.2778C102.438 58.5684 102.613 59.0397 102.671 59.3303C102.845 60.1504 103.078 60.9123 103.253 61.6742C103.544 62.9011 103.835 64.1344 104.01 65.3612C104.301 67.7633 104.126 70.2234 104.184 72.8579C104.65 72.8579 105.064 72.916 105.472 72.8579C108.512 72.3284 111.494 71.8635 114.534 71.1597C117.342 70.514 119.974 69.3452 122.309 67.5308C122.892 67.124 123.422 66.5945 124.121 66.3621C124.354 66.304 124.819 66.1877 125.059 66.4202C125.35 66.7107 125.175 67.647 125.175 68.0603C125.175 69.4679 125.175 70.8691 125.233 72.3349V74.5044V74.4786Z" fill="white"/>
<path d="M171.607 75.2406C172.131 75.7119 172.603 76.1187 172.428 76.4093C172.021 76.9969 167.926 77.4037 166.988 77.4618C164.944 77.5199 162.952 77.2875 161.024 76.6999C158.98 76.0542 157.518 73.1872 156.522 71.4309C155.351 69.384 154.245 67.2144 152.602 65.4581C151.431 64.1667 149.969 63.2885 148.507 62.4104C147.22 61.6484 145.7 60.8865 144.943 59.5434C144.186 58.1358 144.652 56.4957 145.7 55.385C146.399 54.6812 147.22 54.2163 147.977 53.5706C149.264 52.5762 150.61 51.6981 151.716 50.581C153.702 48.5922 154.174 45.9512 153.294 43.4911C152.654 41.7348 151.425 40.6823 149.905 40.1528C147.977 39.3909 145.693 39.0422 143.591 39.3327C141.838 39.5652 142.188 41.6767 142.188 43.2005C142.129 45.1312 142.188 73.1291 142.188 74.5949C142.188 75.8217 142.013 76.4093 140.726 76.4674C137.918 76.5255 135.111 76.6418 132.252 76.5837C130.79 76.5837 130.499 76.235 130.499 74.7111C130.499 73.3616 130.557 71.9604 130.557 70.6109C130.615 68.3832 130.673 66.22 130.673 64.0505V59.8921C130.673 55.6756 130.673 51.4591 130.615 47.2427V40.7985C130.615 39.6879 130.499 38.5708 130.557 37.5183C130.732 35.5295 131.256 35.8201 132.899 35.8782C134.768 35.9944 136.637 36.1688 138.513 36.1688C143.539 36.0525 148.572 35.8201 153.598 35.6393C155.94 35.5812 158.217 35.6393 160.5 36.285C161.322 36.5175 162.137 36.7564 162.9 37.1632C166.115 38.8614 167.577 42.4903 166.581 46.2999C165.94 48.8182 164.653 50.807 162.486 51.9241C161.257 52.5698 159.97 53.0347 158.689 53.3898C158.223 53.506 157.809 53.6223 157.343 53.6804C156.056 53.9709 154.711 54.2099 153.423 54.4423C152.544 54.6167 151.612 54.6748 150.733 54.791C149.969 54.9072 148.921 54.9072 148.274 55.4367C148.158 55.4948 148.1 55.5529 147.983 55.6692C147.867 55.9597 147.867 56.373 148.158 56.6054C148.391 56.7798 148.682 56.7798 148.98 56.7798C150.034 56.8379 151.024 56.7217 152.078 56.7798L153.715 56.9541C154.238 57.0122 154.769 57.1866 155.293 57.3028C158.1 58.0066 160.849 59.2335 163.01 61.2287C165.584 63.5145 166.574 66.4396 167.803 69.6035C168.152 70.6561 168.502 71.715 169.09 72.7094C169.731 73.7619 170.669 74.4657 171.607 75.2277V75.2406Z" fill="white"/>
<path d="M218.808 75.2406C219.332 75.7119 219.804 76.1187 219.629 76.4093C219.222 76.9969 215.127 77.4037 214.189 77.4618C212.145 77.5199 210.153 77.2875 208.225 76.6999C206.181 76.0542 204.719 73.1872 203.723 71.4309C202.552 69.384 201.44 67.2144 199.803 65.4581C198.632 64.1667 197.17 63.2885 195.709 62.4104C194.421 61.6484 192.901 60.8865 192.144 59.5434C191.387 58.1358 191.853 56.4957 192.901 55.385C193.606 54.6812 194.421 54.2163 195.185 53.5706C196.472 52.5762 197.817 51.6981 198.923 50.581C200.909 48.5922 201.381 45.9512 200.502 43.4911C199.861 41.7348 198.632 40.6823 197.112 40.1528C195.185 39.3909 192.901 39.0422 190.799 39.3327C189.046 39.5652 189.395 41.6767 189.395 43.2005C189.337 45.1312 189.395 73.1291 189.395 74.5949C189.395 75.8217 189.221 76.4093 187.933 76.4674C185.126 76.5255 182.319 76.6418 179.453 76.5837C177.991 76.5837 177.7 76.235 177.7 74.7111C177.7 73.3616 177.758 71.9604 177.758 70.6109C177.816 68.3832 177.875 66.22 177.875 64.0505V59.8921C177.875 55.6756 177.875 51.4591 177.816 47.2427V40.7985C177.816 39.6879 177.7 38.5708 177.758 37.5183C177.933 35.5295 178.457 35.8201 180.1 35.8782C181.969 35.9944 183.839 36.1688 185.715 36.1688C190.741 36.0525 195.773 35.8201 200.799 35.6393C203.141 35.5812 205.418 35.6393 207.701 36.285C208.523 36.5175 209.338 36.7564 210.101 37.1632C213.316 38.8614 214.778 42.4903 213.782 46.2999C213.141 48.8182 211.854 50.807 209.687 51.9241C208.458 52.5698 207.171 53.0347 205.884 53.3898C205.418 53.506 205.004 53.6223 204.538 53.6804C203.251 53.9709 201.905 54.2099 200.618 54.4423C199.738 54.6167 198.807 54.6748 197.927 54.791C197.17 54.9072 196.116 54.9072 195.469 55.4367C195.353 55.4948 195.295 55.5529 195.178 55.6692C195.062 55.9597 195.062 56.373 195.353 56.6054C195.586 56.7798 195.877 56.7798 196.174 56.7798C197.229 56.8379 198.218 56.7217 199.273 56.7798L200.909 56.9541C201.433 57.0122 201.964 57.1866 202.488 57.3028C205.295 58.0066 208.044 59.2335 210.205 61.2287C212.779 63.5145 213.769 66.4396 214.998 69.6035C215.347 70.6561 215.703 71.715 216.285 72.7094C216.925 73.7619 217.863 74.4657 218.801 75.2277L218.808 75.2406Z" fill="white"/>
<path d="M259.987 74.4786C259.987 75.0662 260.045 75.7119 259.871 76.3512C259.696 76.9388 259.288 76.6999 258.816 76.5836L257.587 76.2349C254.663 75.0081 251.565 74.4205 248.408 74.3624C244.372 74.188 240.4 74.653 236.422 75.1824C232.858 75.6538 229.287 76.0606 225.781 76.4157C224.727 76.532 224.785 75.5376 225.199 74.8919C227.541 71.2049 227.948 67.1046 227.418 62.8236C226.952 59.369 226.363 55.9726 225.723 52.5181C225.257 49.9998 224.966 47.4816 224.901 44.9052C224.843 42.5031 225.6 40.3981 226.596 38.2867C227.418 36.7047 228.698 35.8265 230.4 35.536C231.454 35.3035 232.56 35.2454 233.673 35.1873C237.353 35.1292 240.982 35.4197 244.605 36.2398C246.183 36.5885 247.761 36.8855 249.398 37.0017C250.86 37.1179 252.438 37.1179 253.9 36.8274C254.663 36.7111 255.362 36.4787 256.002 36.1235C256.352 35.9492 256.707 35.7168 257.057 35.4778C257.231 35.3616 257.581 34.8321 257.878 35.071C257.995 35.1292 258.111 35.7749 258.169 35.9492C258.46 36.7111 258.635 37.5312 258.868 38.3512C259.159 39.7589 259.508 41.102 259.689 42.5096C259.806 43.3297 260.272 45.3765 259.515 45.9641C259.34 46.1385 259.165 46.2547 258.933 46.3709C258.525 46.6034 258.111 46.8423 257.704 46.9585C256.824 47.3072 255.892 47.4299 254.954 47.4299C251.151 47.5461 247.47 46.7261 244.139 44.8535C242.269 43.8591 240.575 42.5677 238.822 41.399C236.952 40.1721 235.141 38.8807 233.265 37.712C231.046 36.4206 228.996 37.3633 228.472 39.8816C228.297 40.7016 228.297 41.6379 228.53 42.3998C228.938 43.8075 229.41 45.2087 230.167 46.3839C231.92 49.0183 233.906 51.4785 235.368 54.2292C235.542 54.5779 235.659 54.8749 235.833 55.1655C236.066 55.6369 236.066 55.9855 236.648 55.8693C236.998 55.8112 237.353 55.695 237.703 55.5787L240.51 54.5262C241.267 54.2357 242.03 53.9386 242.787 53.59C243.9 53.1832 245.006 52.7118 246.06 52.2985C246.584 52.1242 248.867 51.0071 249.159 51.5947C249.391 52.1823 248.867 55.1655 248.809 55.9855C248.635 57.277 248.46 58.5038 248.227 59.7371C248.111 60.2085 248.111 60.9639 247.522 60.6153C247.173 60.4409 246.94 60.0277 246.584 59.7371C246.06 59.3303 245.53 58.9752 244.947 58.6846C243.835 58.097 242.548 57.7483 241.267 57.6321C240.51 57.6321 239.747 57.5159 238.99 57.6321C238.582 57.6321 237.295 57.8064 237.237 58.2778C237.179 58.5684 237.353 59.0397 237.412 59.3303C237.586 60.1504 237.819 60.9123 237.994 61.6742C238.285 62.9011 238.576 64.1344 238.751 65.3612C239.042 67.7633 238.867 70.2234 238.925 72.8579C239.391 72.8579 239.805 72.916 240.212 72.8579C243.253 72.3284 246.235 71.8635 249.275 71.1597C252.082 70.514 254.715 69.3452 257.05 67.5308C257.632 67.124 258.163 66.5945 258.861 66.3621C259.094 66.304 259.56 66.1877 259.799 66.4202C260.09 66.7107 259.916 67.647 259.916 68.0603C259.916 69.4679 259.916 70.8691 259.974 72.3349V74.5044L259.987 74.4786Z" fill="white"/>
<path d="M88.5307 80.2835C88.88 81.0455 86.7195 82.0398 86.312 82.395C85.3158 83.0988 84.4425 83.9189 83.5628 84.7389C82.0427 86.1465 80.6972 87.6058 79.2935 89.0716C77.8899 90.6536 76.3115 91.4736 74.2092 91.2993C73.8017 91.2993 73.3295 91.2412 72.922 91.2412C72.6891 91.2412 72.1005 91.3574 71.8676 91.2412C71.3437 91.0087 71.5183 90.3049 71.693 89.8917C73.1549 87.1991 74.675 84.5646 76.1369 81.8655C76.8937 80.3997 78.0063 79.8186 79.6429 79.9348C81.163 79.9929 82.6831 79.9929 84.2032 80.0511C85.0247 80.0511 85.8398 80.0511 86.6613 80.1092C87.1852 80.1092 87.7739 79.9348 88.2396 80.1092C88.4143 80.1673 88.4725 80.2254 88.5307 80.2835ZM92.2113 131.591C92.2113 132.179 92.2695 132.825 92.0949 133.464C91.9202 134.052 91.5127 133.813 91.0405 133.697L89.8115 133.348C86.8877 132.121 83.7892 131.533 80.6325 131.475C76.5961 131.301 72.6244 131.766 68.6463 132.295C65.0821 132.767 61.5114 133.173 58.0054 133.522C56.9511 133.638 57.0093 132.644 57.4233 131.998C59.7649 128.311 60.1724 124.211 59.642 119.93C59.1762 116.475 58.5876 113.079 57.9472 109.625C57.4815 107.106 57.1904 104.588 57.1257 102.012C57.0675 99.6096 57.8243 97.5046 58.8205 95.3931C59.642 93.8111 60.9228 92.9329 62.6175 92.6424C63.6719 92.4099 64.778 92.3518 65.8906 92.2937C69.5713 92.2356 73.2001 92.5261 76.8225 93.3462C78.4009 93.6949 79.9792 93.9919 81.6158 94.1081C83.0777 94.2244 84.656 94.2244 86.1179 93.9338C86.8747 93.8176 87.5798 93.5851 88.2202 93.23C88.5695 93.0556 88.9188 92.8167 89.2746 92.5843C89.4492 92.468 89.7985 91.9386 90.0961 92.171C90.2125 92.2291 90.329 92.8748 90.3872 93.0492C90.6783 93.8111 90.8529 94.6312 91.0858 95.4512C91.3769 96.8588 91.7262 98.2019 91.9073 99.6096C92.0237 100.43 92.4895 102.477 91.7326 103.064C91.558 103.238 91.3833 103.355 91.1505 103.477C90.7429 103.71 90.329 103.949 89.9214 104.065C89.0417 104.414 88.1102 104.536 87.1723 104.536C83.3752 104.653 79.6881 103.832 76.3568 101.96C74.4874 100.966 72.7926 99.6741 71.0396 98.5054C69.1702 97.2786 67.359 95.9871 65.4831 94.8184C63.2644 93.527 61.2138 94.4697 60.6899 96.988C60.5152 97.808 60.5152 98.7443 60.7481 99.5063C61.1556 100.914 61.6278 102.315 62.3847 103.49C64.1377 106.125 66.1235 108.585 67.5854 111.336C67.7601 111.684 67.8765 111.981 68.0511 112.272C68.284 112.743 68.284 113.092 68.8727 112.976C69.222 112.918 69.5713 112.801 69.927 112.685L72.7344 111.633C73.4912 111.342 74.2545 111.045 75.0113 110.696C76.1239 110.29 77.2301 109.818 78.2844 109.405C78.8084 109.231 81.0918 108.12 81.3829 108.701C81.6158 109.289 81.0918 112.272 81.0336 113.092C80.8589 114.383 80.6843 115.61 80.4514 116.844C80.335 117.315 80.335 118.07 79.7528 117.722C79.4035 117.547 79.1706 117.134 78.8149 116.844C78.2909 116.43 77.7605 116.082 77.1783 115.791C76.0657 115.203 74.7785 114.855 73.4977 114.739C72.7409 114.739 71.9776 114.622 71.2208 114.739C70.8132 114.739 69.526 114.913 69.4678 115.384C69.4095 115.675 69.5842 116.146 69.6424 116.437C69.8171 117.257 70.0499 118.019 70.2246 118.781C70.5157 120.014 70.8068 121.241 70.9814 122.468C71.2725 124.87 71.0978 127.33 71.1561 129.964C71.6218 129.964 72.0358 130.022 72.4433 129.964C75.4836 129.435 78.4656 128.97 81.5058 128.266C84.3132 127.62 86.9459 126.452 89.281 124.637C89.8632 124.224 90.3936 123.701 91.0922 123.468C91.3251 123.41 91.7909 123.294 92.0302 123.527C92.3213 123.817 92.1466 124.76 92.1466 125.167C92.1466 126.574 92.1466 127.976 92.2048 129.441V131.611L92.2113 131.591Z" fill="white"/>
<path d="M133.681 117.302C133.681 120.582 133.623 123.804 133.681 127.026C133.74 128.195 133.274 129.015 132.394 129.661C130.408 131.127 128.183 132.295 125.731 132.767C120.938 133.645 116.087 133.645 111.235 132.767C107.904 132.179 105.038 130.481 102.639 128.021C100.362 125.619 98.8416 122.868 98.1947 119.53C97.3732 115.255 97.1403 110.922 98.2529 106.641C99.0745 103.652 100.472 100.727 102.522 98.4408C104.864 95.8063 108.021 94.5149 111.294 93.3462C114.858 92.0548 118.603 92.2937 122.284 93.0556C122.924 93.1719 123.571 93.3462 124.27 93.527C126.255 94.0565 128.306 93.9984 130.292 93.2945C130.932 93.1202 131.463 92.8232 132.103 92.6488C132.511 92.5326 132.86 92.4745 133.099 92.5326C133.274 92.6488 133.39 92.8813 133.332 93.2945C133.332 94.7022 133.332 96.0453 133.274 97.3948C133.274 98.4473 133.274 99.5063 133.216 100.617V102.199C133.157 102.67 133.274 103.077 132.866 103.309C132.692 103.368 132.575 103.426 132.401 103.542C132.11 103.658 131.877 103.774 131.579 103.833C130.292 104.181 129.063 104.42 127.782 104.653C125.266 105.059 122.872 104.711 120.647 103.484C118.836 102.489 116.908 101.844 114.858 101.553C109.359 100.791 105.213 102.903 101.998 107.235C99.6566 110.399 100.071 116.198 103.111 119.007C105.976 121.757 109.25 123.165 113.228 123.049C119.716 122.874 125.622 121.06 131.062 117.541C131.469 117.308 131.818 117.07 132.174 116.837C132.465 116.605 132.931 116.191 133.345 116.308C133.753 116.424 133.694 116.953 133.694 117.302H133.681Z" fill="white"/>
<path d="M172.661 121.925C173.36 122.274 173.832 122.862 173.774 123.623C173.774 124.269 173.657 124.85 173.599 125.496C173.366 127.136 173.075 128.834 172.777 130.474C172.661 131.294 172.486 132.056 172.37 132.876C172.312 133.109 172.253 133.813 172.079 133.929C172.079 133.987 172.021 133.987 172.021 133.987C171.846 134.045 171.788 133.813 171.613 133.697C171.322 133.464 171.031 133.167 170.675 132.993C170.151 132.579 169.504 132.289 168.864 132.056C167.693 131.643 166.406 131.527 165.125 131.585C163.256 131.643 161.386 131.818 159.569 132.173C155.532 133.051 151.502 133.58 147.349 133.406C146.593 133.348 145.829 133.348 145.066 133.232C142.905 132.941 141.269 131.882 140.389 129.777C139.568 127.963 138.927 126.032 138.927 123.979C138.927 121.925 139.044 119.762 139.509 117.651C139.859 115.836 140.208 113.964 140.506 112.143C140.797 110.212 141.03 108.333 141.327 106.461C141.735 103.826 141.851 101.192 141.152 98.5506C140.745 97.2011 140.156 95.858 139.632 94.5085C139.458 94.0952 139.167 93.7466 139.108 93.2752C139.05 92.6295 139.749 92.5133 140.337 92.5133C143.552 92.4551 146.767 92.4551 150.04 92.4551C151.619 92.4551 151.968 92.6876 152.317 94.2115C153.139 97.8403 153.255 101.476 152.434 105.105C151.612 108.914 150.564 112.543 148.514 115.881C147.459 117.638 146.23 119.278 145.008 120.918C144.012 122.209 143.313 123.669 142.789 125.193C142.207 126.716 142.381 128.182 143.138 129.641C144.018 131.34 145.538 131.869 147.175 130.868C148.869 129.932 150.506 128.757 152.084 127.704C153.954 126.478 155.765 125.186 157.641 124.017C161.089 121.848 165.591 120.621 169.627 121.15C170.682 121.267 171.671 121.499 172.667 121.912L172.661 121.925Z" fill="white"/>
<path d="M219.507 130.126C219.681 130.655 220.263 131.766 219.681 132.173C219.099 132.586 217.579 132.289 216.874 132.289H210.91C209.623 132.289 208.277 132.405 206.99 132.289C206.11 132.231 205.644 131.998 205.237 131.236C204.888 130.591 204.655 129.829 204.415 129.125C202.371 123.74 200.379 118.348 198.393 112.963C197.927 111.794 197.397 112.143 196.349 112.375C195.411 112.608 194.48 112.847 193.6 113.312C192.429 113.899 190.501 114.719 190.21 116.12V116.65C190.443 118.464 191.206 120.401 191.905 122.1C192.604 123.914 193.542 125.612 194.596 127.252C195.062 128.014 195.534 128.776 196 129.48C196.349 130.068 198.102 131.592 197.345 132.115C196.879 132.521 195.592 132.289 195.004 132.289H182.144C181.322 132.289 180.333 132.405 179.511 132.115C178.813 131.824 179.104 130.707 179.22 130.126C182.493 118.529 185.708 106.99 189.039 95.3931C190.21 91.2929 189.861 91.6416 194.124 91.7061C196.989 91.7642 205.405 91.7061 205.761 91.8224C206.285 92.0548 206.699 93.1719 206.873 93.6949C209.972 101.837 212.837 110.154 215.47 118.471C216.699 122.397 218.161 126.258 219.507 130.126ZM196.938 109.98C197.345 109.392 196.705 108.165 196.53 107.461L195.301 104.181C194.661 102.251 194.014 100.313 193.373 98.3246C193.257 97.976 193.199 96.8589 192.733 96.8008C192.209 96.7427 191.62 97.7952 191.446 98.1503C190.45 99.9647 189.926 101.96 189.576 103.949C189.111 106.525 188.994 109.043 189.343 111.62C189.402 112.149 189.343 112.672 190.049 112.614C190.573 112.614 192.623 111.62 193.147 111.445C194.318 111.032 195.605 110.742 196.711 110.212C196.769 110.154 196.886 110.096 196.944 109.98H196.938Z" fill="white"/>
<path d="M253.648 98.796C253.648 99.4998 254.055 100.494 253.822 101.14C253.531 101.96 252.244 101.844 251.545 101.844C248.156 101.902 244.766 101.96 241.312 101.96C240.199 102.018 239.093 101.96 237.981 102.018C235.937 102.134 234.649 103.949 235.29 105.944C235.814 107.468 236.693 108.811 237.864 109.986C239.675 111.917 241.428 113.854 243.123 115.843C245.167 118.419 246.629 121.228 247.509 124.392C247.742 125.328 247.858 126.264 247.858 127.201C247.858 128.021 247.742 128.841 247.509 129.603C247.393 130.016 247.218 130.365 247.043 130.713C246.869 131.062 246.752 131.475 246.577 131.766C246.228 132.353 246.053 133.115 245.232 133.115C244.592 133.115 233.362 133.232 232.78 133.174C232.605 133.174 232.256 133.232 232.14 133.115C231.732 132.767 232.256 131.824 232.431 131.417C233.485 129.131 233.834 126.729 233.893 124.269C234.067 120.401 233.893 116.656 232.955 112.905C232.722 111.852 232.605 110.735 232.314 109.683C231.848 107.636 231.965 105.641 232.489 103.652C232.664 103.18 232.722 102.657 232.838 102.07C230.678 101.954 228.685 101.954 226.641 102.244C225.354 102.418 224.125 102.535 222.838 102.657C222.314 102.715 221.783 102.541 221.551 101.954C221.027 100.488 220.613 98.9639 220.321 97.3819C220.205 96.4456 219.972 95.5093 219.972 94.515C220.03 93.2235 220.729 92.933 222.016 92.8749C225.58 92.6424 250.898 91.9967 251.953 92.171C252.891 92.3454 253.007 93.2816 253.182 94.1017C253.415 95.038 253.473 95.9161 253.531 96.8524C253.589 97.4981 253.589 98.1438 253.648 98.7831V98.796Z" fill="white"/>
</g>
<defs>
<clipPath id="clip0_88_17">
<rect width="209" height="99" fill="white" transform="translate(51 35)"/>
</clipPath>
</defs>
</svg>
